# 3ds Max Wavefront OBJ Exporter v0.97b - (c)2007 guruware
# 创建的文件:03.09.2020 10:07:01

mtllib reinforcement_up.mtl

#
# object cube
#

v  1.0000 1.0000 1.0000
v  1.0000 0.0000 1.0000
v  1.0000 1.0000 0.8750
v  1.0000 0.0000 0.8750
v  0.0000 1.0000 0.8750
v  0.0000 0.0000 0.8750
v  0.0000 1.0000 1.0000
v  0.0000 0.0000 1.0000
v  0.8125 0.3125 2.0625
v  0.8125 0.2500 2.0625
v  0.8125 0.3125 2.0000
v  0.8125 0.2500 2.0000
v  0.7500 0.3125 2.0000
v  0.7500 0.2500 2.0000
v  0.7500 0.3125 2.0625
v  0.7500 0.2500 2.0625
v  0.7500 0.3750 2.0625
v  0.7500 0.1875 2.0625
v  0.7500 0.3750 2.0000
v  0.7500 0.1875 2.0000
v  0.6875 0.3750 2.0000
v  0.6875 0.1875 2.0000
v  0.6875 0.3750 2.0625
v  0.6875 0.1875 2.0625
v  0.6875 0.3125 2.0625
v  0.6875 0.2500 2.0625
v  0.6875 0.3125 2.0000
v  0.6875 0.2500 2.0000
v  0.6250 0.3125 2.0000
v  0.6250 0.2500 2.0000
v  0.6250 0.3125 2.0625
v  0.6250 0.2500 2.0625
v  0.7500 0.3125 1.0000
v  0.7500 0.2500 1.0000
v  0.6875 0.3125 1.0000
v  0.6875 0.2500 1.0000
v  0.3750 0.7500 2.0625
v  0.3750 0.6875 2.0625
v  0.3750 0.7500 2.0000
v  0.3750 0.6875 2.0000
v  0.3125 0.7500 2.0000
v  0.3125 0.6875 2.0000
v  0.3125 0.7500 2.0625
v  0.3125 0.6875 2.0625
v  0.3125 0.8125 2.0625
v  0.3125 0.6250 2.0625
v  0.3125 0.8125 2.0000
v  0.3125 0.6250 2.0000
v  0.2500 0.8125 2.0000
v  0.2500 0.6250 2.0000
v  0.2500 0.8125 2.0625
v  0.2500 0.6250 2.0625
v  0.2500 0.7500 2.0625
v  0.2500 0.6875 2.0625
v  0.2500 0.7500 2.0000
v  0.2500 0.6875 2.0000
v  0.1875 0.7500 2.0000
v  0.1875 0.6875 2.0000
v  0.1875 0.7500 2.0625
v  0.1875 0.6875 2.0625
v  0.3125 0.7500 1.0000
v  0.3125 0.6875 1.0000
v  0.2500 0.7500 1.0000
v  0.2500 0.6875 1.0000
v  0.6875 0.7500 2.0625
v  0.6875 0.6875 2.0625
v  0.6875 0.7500 2.0000
v  0.6875 0.6875 2.0000
v  0.6250 0.7500 2.0000
v  0.6250 0.6875 2.0000
v  0.6250 0.7500 2.0625
v  0.6250 0.6875 2.0625
v  0.8125 0.7500 2.0625
v  0.8125 0.6875 2.0625
v  0.8125 0.7500 2.0000
v  0.8125 0.6875 2.0000
v  0.7500 0.7500 2.0000
v  0.7500 0.6875 2.0000
v  0.7500 0.7500 2.0625
v  0.7500 0.6875 2.0625
v  0.7500 0.8125 2.0625
v  0.7500 0.6250 2.0625
v  0.7500 0.8125 2.0000
v  0.7500 0.6250 2.0000
v  0.6875 0.8125 2.0000
v  0.6875 0.6250 2.0000
v  0.6875 0.8125 2.0625
v  0.6875 0.6250 2.0625
v  0.7500 0.7500 1.0000
v  0.7500 0.6875 1.0000
v  0.6875 0.7500 1.0000
v  0.6875 0.6875 1.0000
v  0.2500 0.3125 2.0625
v  0.2500 0.2500 2.0625
v  0.2500 0.3125 2.0000
v  0.2500 0.2500 2.0000
v  0.1875 0.3125 2.0000
v  0.1875 0.2500 2.0000
v  0.1875 0.3125 2.0625
v  0.1875 0.2500 2.0625
v  0.3750 0.3125 2.0625
v  0.3750 0.2500 2.0625
v  0.3750 0.3125 2.0000
v  0.3750 0.2500 2.0000
v  0.3125 0.3125 2.0000
v  0.3125 0.2500 2.0000
v  0.3125 0.3125 2.0625
v  0.3125 0.2500 2.0625
v  0.3125 0.3750 2.0625
v  0.3125 0.1875 2.0625
v  0.3125 0.3750 2.0000
v  0.3125 0.1875 2.0000
v  0.2500 0.3750 2.0000
v  0.2500 0.1875 2.0000
v  0.2500 0.3750 2.0625
v  0.2500 0.1875 2.0625
v  0.3125 0.3125 1.0000
v  0.3125 0.2500 1.0000
v  0.2500 0.3125 1.0000
v  0.2500 0.2500 1.0000
# 120 vertices

vn 1.0000 0.0000 0.0000
vn -1.0000 0.0000 0.0000
vn 0.0000 1.0000 0.0000
vn 0.0000 -1.0000 0.0000
vn 0.0000 0.0000 1.0000
vn 0.0000 0.0000 -1.0000
# 6 vertex normals

vt 0.3750 0.6250 0.0000
vt 0.3750 0.3750 0.0000
vt 0.3906 0.6250 0.0000
vt 0.3906 0.3750 0.0000
vt 0.3906 0.6094 0.0000
vt 0.3906 0.3594 0.0000
vt 0.4063 0.6094 0.0000
vt 0.4063 0.3594 0.0000
vt 0.5000 0.8750 0.0000
vt 0.5000 0.8906 0.0000
vt 0.2500 0.8750 0.0000
vt 0.2500 0.8906 0.0000
vt 0.5000 0.8594 0.0000
vt 0.2500 0.8594 0.0000
vt 0.0000 0.7500 0.0000
vt 0.0000 0.5000 0.0000
vt 0.2500 0.7500 0.0000
vt 0.2500 0.5000 0.0000
vt 0.0000 1.0000 0.0000
vt 0.2500 1.0000 0.0000
vt 0.0000 0.9688 0.0000
vt 0.5000 1.0000 0.0000
vt 0.5000 0.9688 0.0000
vt 0.1563 0.9063 0.0000
vt 0.1563 0.8750 0.0000
vt 0.1875 0.9063 0.0000
vt 0.1875 0.8750 0.0000
vt 0.1875 0.8438 0.0000
vt 0.1563 0.8438 0.0000
vt 0.1250 0.8125 0.0000
vt 0.1250 0.7813 0.0000
vt 0.0938 0.8125 0.0000
vt 0.0938 0.7813 0.0000
vt 0.1563 0.9375 0.0000
vt 0.1875 0.9375 0.0000
vt 0.1250 0.9063 0.0000
vt 0.1250 0.8750 0.0000
vt 0.0625 0.8438 0.0000
vt 0.0625 0.7500 0.0000
vt 0.0938 0.8438 0.0000
vt 0.0938 0.7500 0.0000
vt 0.1250 0.7500 0.0000
vt 0.1563 0.7813 0.0000
vt 0.1563 0.7500 0.0000
vt 0.0625 0.9375 0.0000
vt 0.0938 0.9375 0.0000
vt 0.2188 0.9063 0.0000
vt 0.2188 0.8750 0.0000
vt 0.2188 0.8438 0.0000
vt 0.2188 0.8125 0.0000
vt 0.1875 0.8125 0.0000
vt 0.2188 0.9375 0.0000
vt 0.1563 0.8125 0.0000
vt 0.1875 0.7813 0.0000
vt 0.0000 0.9375 0.0000
vt 0.5000 0.9375 0.0000
vt 0.0313 0.4375 0.0000
vt 0.0313 0.9375 0.0000
vt 0.0000 0.4375 0.0000
vt 0.0625 0.4375 0.0000
vt 0.1250 0.9375 0.0000
vt 0.0938 0.9063 0.0000
vt 0.2188 0.7813 0.0000
# 63 texture coords

o cube
g cube
usemtl reinforcement_up_m_2_0
s 1
f 1/1/1 2/2/1 3/3/1 
f 2/2/1 4/4/1 3/3/1 
f 5/5/2 6/6/2 7/7/2 
f 6/6/2 8/8/2 7/7/2 
f 5/9/3 7/10/3 3/11/3 
f 7/10/3 1/12/3 3/11/3 
f 8/9/4 6/13/4 2/11/4 
f 6/13/4 4/14/4 2/11/4 
f 7/15/5 8/16/5 1/17/5 
f 8/16/5 2/18/5 1/17/5 
f 3/19/6 4/15/6 5/20/6 
f 4/15/6 6/17/6 5/20/6 
usemtl reinforcement_up_m_3
f 9/19/1 10/21/1 11/22/1 
f 10/21/1 12/23/1 11/22/1 
f 13/24/2 14/25/2 15/26/2 
f 14/25/2 16/27/2 15/26/2 
f 13/28/3 15/27/3 11/29/3 
f 15/27/3 9/25/3 11/29/3 
f 16/30/4 14/31/4 10/32/4 
f 14/31/4 12/33/4 10/32/4 
f 15/34/5 16/24/5 9/35/5 
f 16/24/5 10/26/5 9/35/5 
f 11/36/6 12/37/6 13/24/6 
f 12/37/6 14/25/6 13/24/6 
f 17/19/1 18/21/1 19/22/1 
f 18/21/1 20/23/1 19/22/1 
f 21/38/2 22/39/2 23/40/2 
f 22/39/2 24/41/2 23/40/2 
f 21/42/3 23/31/3 19/41/3 
f 23/31/3 17/33/3 19/41/3 
f 24/43/4 22/44/4 18/31/4 
f 22/44/4 20/42/4 18/31/4 
f 23/37/5 24/31/5 17/25/5 
f 24/31/5 18/43/5 17/25/5 
f 19/45/6 20/38/6 21/46/6 
f 20/38/6 22/40/6 21/46/6 
f 25/19/1 26/21/1 27/22/1 
f 26/21/1 28/23/1 27/22/1 
f 29/26/2 30/27/2 31/47/2 
f 30/27/2 32/48/2 31/47/2 
f 29/49/3 31/48/3 27/28/3 
f 31/48/3 25/27/3 27/28/3 
f 32/49/4 30/50/4 26/28/4 
f 30/50/4 28/51/4 26/28/4 
f 31/35/5 32/26/5 25/52/5 
f 32/26/5 26/47/5 25/52/5 
f 27/53/6 28/43/6 29/51/6 
f 28/43/6 30/54/6 29/51/6 
f 13/19/1 14/21/1 33/22/1 
f 14/21/1 34/23/1 33/22/1 
f 35/21/2 36/55/2 27/23/2 
f 36/55/2 28/56/2 27/23/2 
f 35/57/3 27/58/3 33/59/3 
f 27/58/3 13/55/3 33/59/3 
f 28/45/4 36/60/4 14/58/4 
f 36/60/4 34/57/4 14/58/4 
f 27/61/5 28/36/5 13/34/5 
f 28/36/5 14/24/5 13/34/5 
f 33/46/6 34/62/6 35/61/6 
f 34/62/6 36/36/6 35/61/6 
f 37/29/1 38/53/1 39/28/1 
f 38/53/1 40/51/1 39/28/1 
f 41/24/2 42/25/2 43/26/2 
f 42/25/2 44/27/2 43/26/2 
f 41/28/3 43/27/3 39/29/3 
f 43/27/3 37/25/3 39/29/3 
f 44/30/4 42/31/4 38/32/4 
f 42/31/4 40/33/4 38/32/4 
f 43/34/5 44/24/5 37/35/5 
f 44/24/5 38/26/5 37/35/5 
f 39/36/6 40/37/6 41/24/6 
f 40/37/6 42/25/6 41/24/6 
f 45/62/1 46/32/1 47/36/1 
f 46/32/1 48/30/1 47/36/1 
f 49/38/2 50/39/2 51/40/2 
f 50/39/2 52/41/2 51/40/2 
f 49/42/3 51/31/3 47/41/3 
f 51/31/3 45/33/3 47/41/3 
f 52/43/4 50/44/4 46/31/4 
f 50/44/4 48/42/4 46/31/4 
f 51/37/5 52/31/5 45/25/5 
f 52/31/5 46/43/5 45/25/5 
f 47/45/6 48/38/6 49/46/6 
f 48/38/6 50/40/6 49/46/6 
f 53/51/1 54/54/1 55/50/1 
f 54/54/1 56/63/1 55/50/1 
f 57/26/2 58/27/2 59/47/2 
f 58/27/2 60/48/2 59/47/2 
f 57/49/3 59/48/3 55/28/3 
f 59/48/3 53/27/3 55/28/3 
f 60/49/4 58/50/4 54/28/4 
f 58/50/4 56/51/4 54/28/4 
f 59/35/5 60/26/5 53/52/5 
f 60/26/5 54/47/5 53/52/5 
f 55/53/6 56/43/6 57/51/6 
f 56/43/6 58/54/6 57/51/6 
f 41/19/1 42/21/1 61/22/1 
f 42/21/1 62/23/1 61/22/1 
f 63/21/2 64/55/2 55/23/2 
f 64/55/2 56/56/2 55/23/2 
f 63/57/3 55/58/3 61/59/3 
f 55/58/3 41/55/3 61/59/3 
f 56/45/4 64/60/4 42/58/4 
f 64/60/4 62/57/4 42/58/4 
f 55/61/5 56/36/5 41/34/5 
f 56/36/5 42/24/5 41/34/5 
f 61/46/6 62/62/6 63/61/6 
f 62/62/6 64/36/6 63/61/6 
f 65/19/1 66/21/1 67/22/1 
f 66/21/1 68/23/1 67/22/1 
f 69/26/2 70/27/2 71/47/2 
f 70/27/2 72/48/2 71/47/2 
f 69/49/3 71/48/3 67/28/3 
f 71/48/3 65/27/3 67/28/3 
f 72/49/4 70/50/4 66/28/4 
f 70/50/4 68/51/4 66/28/4 
f 71/35/5 72/26/5 65/52/5 
f 72/26/5 66/47/5 65/52/5 
f 67/53/6 68/43/6 69/51/6 
f 68/43/6 70/54/6 69/51/6 
f 73/19/1 74/21/1 75/22/1 
f 74/21/1 76/23/1 75/22/1 
f 77/24/2 78/25/2 79/26/2 
f 78/25/2 80/27/2 79/26/2 
f 77/28/3 79/27/3 75/29/3 
f 79/27/3 73/25/3 75/29/3 
f 80/30/4 78/31/4 74/32/4 
f 78/31/4 76/33/4 74/32/4 
f 79/34/5 80/24/5 73/35/5 
f 80/24/5 74/26/5 73/35/5 
f 75/36/6 76/37/6 77/24/6 
f 76/37/6 78/25/6 77/24/6 
f 81/19/1 82/21/1 83/22/1 
f 82/21/1 84/23/1 83/22/1 
f 85/38/2 86/39/2 87/40/2 
f 86/39/2 88/41/2 87/40/2 
f 85/42/3 87/31/3 83/41/3 
f 87/31/3 81/33/3 83/41/3 
f 88/43/4 86/44/4 82/31/4 
f 86/44/4 84/42/4 82/31/4 
f 87/37/5 88/31/5 81/25/5 
f 88/31/5 82/43/5 81/25/5 
f 83/45/6 84/38/6 85/46/6 
f 84/38/6 86/40/6 85/46/6 
f 77/19/1 78/21/1 89/22/1 
f 78/21/1 90/23/1 89/22/1 
f 91/21/2 92/55/2 67/23/2 
f 92/55/2 68/56/2 67/23/2 
f 91/57/3 67/58/3 89/59/3 
f 67/58/3 77/55/3 89/59/3 
f 68/45/4 92/60/4 78/58/4 
f 92/60/4 90/57/4 78/58/4 
f 67/61/5 68/36/5 77/34/5 
f 68/36/5 78/24/5 77/34/5 
f 89/46/6 90/62/6 91/61/6 
f 90/62/6 92/36/6 91/61/6 
f 93/51/1 94/54/1 95/50/1 
f 94/54/1 96/63/1 95/50/1 
f 97/26/2 98/27/2 99/47/2 
f 98/27/2 100/48/2 99/47/2 
f 97/49/3 99/48/3 95/28/3 
f 99/48/3 93/27/3 95/28/3 
f 100/49/4 98/50/4 94/28/4 
f 98/50/4 96/51/4 94/28/4 
f 99/35/5 100/26/5 93/52/5 
f 100/26/5 94/47/5 93/52/5 
f 95/53/6 96/43/6 97/51/6 
f 96/43/6 98/54/6 97/51/6 
f 101/29/1 102/53/1 103/28/1 
f 102/53/1 104/51/1 103/28/1 
f 105/24/2 106/25/2 107/26/2 
f 106/25/2 108/27/2 107/26/2 
f 105/28/3 107/27/3 103/29/3 
f 107/27/3 101/25/3 103/29/3 
f 108/30/4 106/31/4 102/32/4 
f 106/31/4 104/33/4 102/32/4 
f 107/34/5 108/24/5 101/35/5 
f 108/24/5 102/26/5 101/35/5 
f 103/36/6 104/37/6 105/24/6 
f 104/37/6 106/25/6 105/24/6 
f 109/62/1 110/32/1 111/36/1 
f 110/32/1 112/30/1 111/36/1 
f 113/38/2 114/39/2 115/40/2 
f 114/39/2 116/41/2 115/40/2 
f 113/42/3 115/31/3 111/41/3 
f 115/31/3 109/33/3 111/41/3 
f 116/43/4 114/44/4 110/31/4 
f 114/44/4 112/42/4 110/31/4 
f 115/37/5 116/31/5 109/25/5 
f 116/31/5 110/43/5 109/25/5 
f 111/45/6 112/38/6 113/46/6 
f 112/38/6 114/40/6 113/46/6 
f 105/19/1 106/21/1 117/22/1 
f 106/21/1 118/23/1 117/22/1 
f 119/21/2 120/55/2 95/23/2 
f 120/55/2 96/56/2 95/23/2 
f 119/57/3 95/58/3 117/59/3 
f 95/58/3 105/55/3 117/59/3 
f 96/45/4 120/60/4 106/58/4 
f 120/60/4 118/57/4 106/58/4 
f 95/61/5 96/36/5 105/34/5 
f 96/36/5 106/24/5 105/34/5 
f 117/46/6 118/62/6 119/61/6 
f 118/62/6 120/36/6 119/61/6 
# 0 polygons - 204 triangles

